<?xml version="1.0" encoding="utf-8"?>
<!-- Generator: Adobe Illustrator 22.0.0, SVG Export Plug-In . SVG Version: 6.00 Build 0)  -->
<svg version="1.1" id="f2e283ea-0459-447a-9b0b-c99a7bb735de"
	 xmlns="http://www.w3.org/2000/svg" xmlns:xlink="http://www.w3.org/1999/xlink" x="0px" y="0px" viewBox="0 0 787 590.6"
	 style="enable-background:new 0 0 787 590.6;" xml:space="preserve">
<style type="text/css">
	.st0{fill:#F0F0F0;}
	.st1{fill:#E5E5E5;}
	.st2{fill:#E6E6E6;}
	.st3{fill:#F2F2F2;}
	.st4{fill:#3F3D56;}
	.st5{fill:#FFB6B6;}
	.st6{fill:#2F2E41;}
	.st7{fill:#953BE8;}
	.st8{fill:#CACACA;}
</style>
<path id="e7a552b9-89f6-403f-a662-c184ed590622" class="st0" d="M740.6,535.8c-0.5,17.8-3.5,35.5-8.9,52.4c-0.1,0.4-0.3,0.8-0.4,1.2
	h-33.1c0-0.4,0.1-0.7,0.1-1.2c2.2-25.3-10.4-177.8-25.6-204.1C674.2,386.3,743.2,455.3,740.6,535.8z"/>
<path id="b08f6207-3c71-42fa-8723-265175c281aa" class="st0" d="M738.1,588.3c-0.3,0.4-0.6,0.8-0.9,1.2h-24.8
	c0.2-0.3,0.4-0.7,0.7-1.2c4.1-7.4,16.2-29.5,27.5-52.4c12.1-24.6,23.2-50.2,22.3-59.5C763.2,478.5,771.5,542.1,738.1,588.3z"/>
<path class="st1" d="M624.2,480.5H0V0h624.2V480.5z M614.9,471.3V9.2H9.2l0,462"/>
<path class="st2" d="M163.4,362.2h-47.3c-2.7,0-4.8-2.2-4.8-4.8v-65.1c0-2.7,2.2-4.8,4.8-4.8h47.3c2.7,0,4.8,2.2,4.8,4.8v65.1
	C168.2,360,166,362.2,163.4,362.2z"/>
<path class="st2" d="M249.5,362.2h-47.3c-2.7,0-4.8-2.2-4.8-4.8V230.4c0-2.7,2.2-4.8,4.8-4.8h47.3c2.7,0,4.8,2.2,4.8,4.8v126.9
	C254.4,360,252.2,362.2,249.5,362.2z"/>
<path class="st2" d="M335.7,362.2h-47.3c-2.7,0-4.8-2.2-4.8-4.8v-65.1c0-2.7,2.2-4.8,4.8-4.8h47.3c2.7,0,4.8,2.2,4.8,4.8v65.1
	C340.5,360,338.4,362.2,335.7,362.2z"/>
<path class="st2" d="M421.9,362.2h-47.3c-2.6,0.1-4.8-2-4.8-4.6V205.8c0.1-2.6,2.2-4.7,4.8-4.6h47.3c2.6-0.1,4.8,2,4.8,4.6v151.8
	C426.7,360.2,424.5,362.3,421.9,362.2z"/>
<path class="st3" d="M508.1,362.2h-47.3c-2.7,0-4.8-2.2-4.8-4.8V162.1c0-2.7,2.2-4.8,4.8-4.8h47.3c2.7,0,4.8,2.2,4.8,4.8v195.2
	C512.9,360,510.7,362.2,508.1,362.2z"/>
<circle class="st4" cx="139.7" cy="258.1" r="9.8"/>
<circle class="st4" cx="225.9" cy="194.7" r="9.8"/>
<circle class="st4" cx="312.1" cy="258.1" r="9.8"/>
<circle class="st4" cx="398.3" cy="163.8" r="9.8"/>
<circle class="st4" cx="484.4" cy="128" r="9.8"/>
<polygon class="st4" points="312.3,260.3 225.9,195.6 140.7,259.4 138.8,256.8 225.9,191.5 311.9,255.9 397.3,162.5 397.7,162.3 
	483.8,127.6 485.1,130.6 399.2,165.2 "/>
<polygon class="st5" points="605,574.7 590.3,574.7 583.3,518.1 605,518.1 "/>
<path class="st6" d="M608.7,588.9l-47.3,0v-0.6c0-10.2,8.2-18.4,18.4-18.4h0l28.9,0L608.7,588.9z"/>
<path class="st6" d="M552.5,335.1l8.3,132.8l28,93.5l21.7,1.6L599.6,449l4.8-75.6c0,0,22.6-16.9,10.1-37.2L552.5,335.1z"/>
<polygon class="st5" points="614.6,574.7 599.9,574.7 592.9,518.1 614.6,518.1 "/>
<path class="st6" d="M618.3,588.9l-47.3,0v-0.6c0-10.2,8.2-18.4,18.4-18.4h0l28.9,0L618.3,588.9z"/>
<path class="st6" d="M562.1,335.1l8.3,132.8l28,93.5l21.7,1.6L609.2,449l4.8-75.6c0,0,22.6-16.9,10.1-37.2L562.1,335.1z"/>
<path class="st4" d="M607.3,355.6c-25,0-54.4-15.3-56.1-16.2l-0.5-0.2l57.4-146.4l28.4-13.4c6.8-3.2,14.9-0.3,18.1,6.5
	c1.1,2.3,1.5,4.8,1.2,7.3l-11.3,101.2l-11.8,52.4l-0.1,0.1C626.1,353.3,617,355.6,607.3,355.6z"/>
<path class="st5" d="M515.6,258.7c5.6-3.6,13.1-1.9,16.6,3.7c0.4,0.6,0.7,1.2,1,1.9l42.7-2.3l-11.2,19.2l-38.9-0.7
	c-6.3,2.1-13.2-1.3-15.3-7.6C508.8,267.5,510.9,261.7,515.6,258.7L515.6,258.7z"/>
<path class="st4" d="M599.9,288.8l-42.8-1.1l0.6-28.3l20.2-6.4l33.2-46.6c6.9-9.6,20.2-11.9,29.9-5c9.6,6.9,11.9,20.2,5,29.9
	c-0.2,0.3-0.5,0.6-0.7,1L599.9,288.8z"/>
<circle class="st5" cx="624.7" cy="145.6" r="28.4"/>
<path class="st6" d="M588.7,121.9c2.9-2.9,6.6-4.9,10.7-5.6c4-0.9,8.3-1.1,11.4-3.6c3.6-2.9,5.2-8.3,9.6-9.5
	c1.9-0.4,3.9-0.2,5.7,0.5c7,2.1,13.3,6.3,18,12c1.1,1.6,2.5,3,4.1,4.1c1,0.4,1.9,0.9,2.8,1.4c1,0.8,1.8,1.8,2.3,3
	c3.2,6.4,3.9,13.8,2.1,20.7c-1.1,4.1-3.1,7.9-4.3,12c-1.2,4.1-6.6,11.9-7.9,10c-1.3-1.9-2.9-3.7-3.6-6c-1.4-4.4-0.1-8.8-3.6-11.9
	c-2.1-1.9-6-3.2-7.4-0.7c-0.6,0.9-0.5,2.1-1,3.1c-1,1.9-3.8,2.3-5.6,1.2c-1.8-1.2-3-3.1-3.5-5.2c-2.8-9.4-7.5-15.4-17.6-11.3
	c-3.8,1.5-8.2,2.5-11.8-0.1C584.3,132.5,585.3,125.7,588.7,121.9z"/>
<path class="st7" d="M524.8,377.8h-47.3c-2.7,0-4.8-2.2-4.8-4.8V177.7c0-2.7,2.2-4.8,4.8-4.8h47.3c2.7,0,4.8,2.2,4.8,4.8v195.2
	C529.7,375.6,527.5,377.8,524.8,377.8z"/>
<path class="st5" d="M514.4,275.5c5.6-3.6,13.1-1.9,16.6,3.7c0.4,0.6,0.7,1.2,1,1.9l42.7-2.3L563.5,298l-38.9-0.7
	c-6.3,2.1-13.2-1.3-15.3-7.6C507.6,284.3,509.7,278.5,514.4,275.5L514.4,275.5z"/>
<path class="st4" d="M598.7,305.6l-42.8-1.1l0.6-28.3l20.2-6.4l33.2-46.6c6.9-9.6,20.2-11.9,29.9-5c9.6,6.9,11.9,20.2,5,29.9
	c-0.2,0.3-0.5,0.6-0.7,1L598.7,305.6z"/>
<path class="st8" d="M785.8,590.6H329.6c-0.7,0-1.2-0.5-1.2-1.2c0-0.7,0.5-1.2,1.2-1.2c0,0,0,0,0,0h456.2c0.7,0,1.2,0.5,1.2,1.2
	C787,590.1,786.4,590.6,785.8,590.6C785.8,590.6,785.8,590.6,785.8,590.6z"/>
</svg>
